HIERARCHY
ROOT Hips
{
 OFFSET 0.000000 0.000000 0.000000
 CHANNELS 6 Xposition Yposition Zposition Yrotation Xrotation Zrotation
 JOINT Chest
 {
  OFFSET 0.000000 9.857222 0.000240
  CHANNELS 3 Yrotation Xrotation Zrotation
  JOINT Chest2
  {
   OFFSET 0.000000 10.876940 -0.000436
   CHANNELS 3 Yrotation Xrotation Zrotation
   JOINT Chest3
   {
    OFFSET 0.000000 9.827798 0.000000
    CHANNELS 3 Yrotation Xrotation Zrotation
    JOINT Chest4
    {
     OFFSET 0.000000 9.827798 0.000000
     CHANNELS 3 Yrotation Xrotation Zrotation
     JOINT Neck
     {
      OFFSET 0.000000 13.831992 0.000000
      CHANNELS 3 Yrotation Xrotation Zrotation
      JOINT Head
      {
       OFFSET 0.000000 9.147643 -0.001036
       CHANNELS 3 Yrotation Xrotation Zrotation
       End Site
       {
        OFFSET 0.000000 17.515799 -0.000541
       }
      }
     }
     JOINT RightCollar
     {
      OFFSET -3.001579 7.717577 0.000000
      CHANNELS 3 Yrotation Xrotation Zrotation
      JOINT RightShoulder
      {
       OFFSET -14.002642 0.000000 0.000000
       CHANNELS 3 Yrotation Xrotation Zrotation
       JOINT RightElbow
       {
        OFFSET -30.053852 0.000000 0.000000
        CHANNELS 3 Yrotation Xrotation Zrotation
        JOINT RightWrist
        {
         OFFSET -24.564923 0.000000 -0.000000
         CHANNELS 3 Yrotation Xrotation Zrotation
         End Site
         {
          OFFSET -18.334355 0.000000 0.000000
         }
        }
       }
      }
     }
     JOINT LeftCollar
     {
      OFFSET 3.001579 7.717577 0.000000
      CHANNELS 3 Yrotation Xrotation Zrotation
      JOINT LeftShoulder
      {
       OFFSET 14.002642 0.000000 0.000000
       CHANNELS 3 Yrotation Xrotation Zrotation
       JOINT LeftElbow
       {
        OFFSET 30.053852 0.000000 0.000000
        CHANNELS 3 Yrotation Xrotation Zrotation
        JOINT LeftWrist
        {
         OFFSET 24.564923 0.000000 -0.000000
         CHANNELS 3 Yrotation Xrotation Zrotation
         End Site
         {
          OFFSET 18.334355 0.000000 0.000000
         }
        }
       }
      }
     }
    }
   }
  }
 }
 JOINT RightHip
 {
  OFFSET -8.003235 -0.001175 -0.000120
  CHANNELS 3 Yrotation Xrotation Zrotation
  JOINT RightKnee
  {
   OFFSET 0.000000 -41.759727 0.000113
   CHANNELS 3 Yrotation Xrotation Zrotation
   JOINT RightAnkle
   {
    OFFSET 0.000000 -40.728748 0.000159
    CHANNELS 3 Yrotation Xrotation Zrotation
    JOINT RightToe
    {
     OFFSET 0.000000 -6.515296 14.732841
     CHANNELS 3 Yrotation Xrotation Zrotation
     End Site
     {
      OFFSET 0.000000 -1.502839 6.412115
     }
    }
   }
  }
 }
 JOINT LeftHip
 {
  OFFSET 8.003235 -0.001175 -0.000120
  CHANNELS 3 Yrotation Xrotation Zrotation
  JOINT LeftKnee
  {
   OFFSET 0.000000 -41.759727 0.000113
   CHANNELS 3 Yrotation Xrotation Zrotation
   JOINT LeftAnkle
   {
    OFFSET 0.000000 -40.728748 0.000159
    CHANNELS 3 Yrotation Xrotation Zrotation
    JOINT LeftToe
    {
     OFFSET 0.000000 -6.515296 14.732841
     CHANNELS 3 Yrotation Xrotation Zrotation
     End Site
     {
      OFFSET 0.000000 -1.502839 6.412115
     }
    }
   }
  }
 }
}
MOTION
Frames: 17
Frame Time: 0.016667
0.000000 88.822259 0.000000 0.000000 -5.826342 0.000000 0.000000 11.116423 0.000000 0.000000 -5.290081 0.000000 0.000000 0.000000 0.000000 0.000000 0.000000 0.000000 0.000000 12.665069 0.000000 0.000000 0.575450 0.000000 0.000000 0.000000 0.000000 0.000000 0.000000 0.000000 2.337306 0.000000 0.000000 -2.337306 0.000000 0.000000 0.000000 0.000000 0.000000 0.000000 0.000000 0.000000 -2.337306 0.000000 0.000000 2.337306 0.000000 0.000000 0.000000 8.578828 0.000000 0.000000 1.905768 0.000000 0.000000 -4.658254 0.000000 0.000000 0.000000 0.000000 0.000000 8.578828 0.000000 0.000000 1.905768 0.000000 0.000000 -4.658254 0.000000 0.000000 0.000000 0.000000
13.367070 89.453444 -17.851592 60.035775 -12.547123 0.627720 -1.818733 7.679499 0.555542 -0.983147 3.232086 0.437139 -0.983147 3.232086 0.437139 -0.739479 2.423370 0.332972 -0.098889 20.879905 -0.256065 -0.104124 2.591096 -0.435953 10.711797 12.601515 -4.525384 93.869887 23.122097 -5.250636 6.843094 4.119019 -8.152398 -3.398310 4.531899 -4.031864 -21.159776 17.927820 -3.503372 -65.466436 -3.363935 19.862452 -13.380591 6.974263 6.640097 0.728576 2.454142 0.468887 -8.803750 7.565624 -13.760544 -3.897271 3.112821 1.959347 -5.291981 0.283068 6.700552 0.257452 -0.487458 0.217487 -9.838515 3.833751 6.841234 24.806165 16.472577 6.380266 0.058360 -2.161562 -9.458928 -1.039346 -0.165566 -0.729104
13.321021 89.445895 -17.787021 60.023674 -12.573986 0.446950 -1.791768 7.583851 0.638151 -0.921976 3.196692 0.402618 -0.921976 3.196692 0.402618 -0.693411 2.396919 0.306713 -0.140676 20.898249 -0.190075 -0.199506 2.625034 -0.303779 10.608665 12.647393 -4.311269 93.640870 23.260559 -5.187189 6.643497 3.826338 -8.221276 -3.391666 4.442393 -3.957218 -21.253454 17.978690 -3.390130 -65.679689 -3.281812 19.796244 -12.644493 6.064609 6.225268 0.597608 2.374959 0.038403 -9.064406 7.547310 -13.528831 -3.757082 3.120567 2.024811 -5.453145 0.261396 6.363577 0.579211 -0.424830 0.362154 -9.491483 3.918615 7.158566 24.344321 16.439456 6.201127 0.102056 -2.258366 -9.445854 -1.029480 -0.079412 -0.675972
13.281014 89.439567 -17.729633 59.961544 -12.523037 0.426208 -1.743702 7.422910 0.586196 -0.870957 3.158571 0.370838 -0.870957 3.158571 0.370838 -0.654971 2.368407 0.282564 -0.162118 20.911191 -0.142051 -0.252606 2.649071 -0.210253 10.540263 12.745845 -4.103169 93.452163 23.030429 -5.325461 6.498142 3.770427 -8.138612 -3.366877 4.415333 -4.047167 -21.344344 18.083180 -3.311973 -66.017722 -3.305502 19.918171 -11.954415 5.204111 5.921625 0.472311 2.198150 -0.445232 -9.274185 7.458934 -13.482005 -3.560617 3.087803 2.040116 -5.343313 0.227747 6.303143 0.519238 -0.361856 0.336367 -9.007464 3.903024 7.365868 23.853525 16.394227 5.999194 -0.018241 -2.299846 -9.452572 -0.927113 -0.062858 -0.588817
13.257105 89.436324 -17.676537 59.884055 -12.476419 0.432771 -1.697435 7.269824 0.534888 -0.830871 3.106400 0.347795 -0.830871 3.106400 0.347795 -0.624770 2.329333 0.265010 -0.166774 20.937845 -0.124098 -0.266357 2.698589 -0.176313 10.461625 12.934589 -3.960035 93.363283 22.401906 -5.671457 6.412959 4.015521 -7.856168 -3.314946 4.394426 -4.183794 -21.429370 18.218589 -3.290379 -66.178469 -3.540996 20.058307 -11.634800 4.474770 5.646778 0.213739 2.064589 -0.871265 -9.495943 7.376292 -13.496580 -3.421418 3.045938 2.085890 -5.162297 0.206584 6.250746 0.476145 -0.309316 0.305280 -8.611847 3.894496 7.497859 23.550008 16.317304 5.878125 -0.109644 -2.282279 -9.448777 -0.897537 -0.075060 -0.541487
13.257700 89.433128 -17.667005 59.857718 -12.406257 0.473954 -1.685161 7.116000 0.445280 -0.790735 3.064823 0.327024 -0.790735 3.064823 0.327024 -0.594551 2.298200 0.249179 -0.165394 20.948771 -0.116106 -0.266205 2.718889 -0.162221 10.373289 13.070312 -3.827664 93.380746 21.491276 -6.111793 6.316990 4.561283 -7.430314 -3.248160 4.362244 -4.220282 -21.536636 18.290140 -3.219378 -66.084890 -3.704974 20.019390 -11.614746 3.627780 5.471552 -0.043392 2.042519 -1.020894 -9.897386 7.245489 -13.628054 -3.210897 2.989205 2.201706 -4.940815 0.178387 6.188312 0.444207 -0.244483 0.275685 -8.493726 3.858379 7.443061 23.463120 16.212662 5.900044 -0.115795 -2.281088 -9.447270 -0.916622 -0.058928 -0.521739
13.266835 89.432479 -17.669006 59.837053 -12.366761 0.482803 -1.684251 6.967585 0.385448 -0.759273 3.020447 0.308336 -0.759273 3.020447 0.308336 -0.570848 2.264957 0.234954 -0.143593 20.982813 -0.112970 -0.227555 2.782113 -0.162969 10.346119 13.292731 -3.681335 93.421384 20.559287 -6.623720 6.184621 5.247985 -6.943178 -3.210499 4.348048 -4.282699 -21.589104 18.480853 -3.147486 -65.682703 -3.552232 19.929300 -11.886818 2.577531 5.550430 -0.154183 1.871282 -1.046697 -10.242068 7.158211 -13.711215 -2.993682 2.929183 2.265753 -4.818768 0.200376 6.153579 0.432593 -0.219846 0.260361 -8.532885 3.850238 7.433017 23.461230 16.175001 5.871923 -0.084780 -2.267871 -9.435416 -0.922407 -0.080791 -0.500177
13.272967 89.430367 -17.676322 59.809371 -12.286436 0.460801 -1.676996 6.821903 0.365153 -0.735255 2.975503 0.295810 -0.735255 2.975503 0.295810 -0.552759 2.231276 0.225391 -0.111446 21.022302 -0.110065 -0.170066 2.855460 -0.167154 10.329709 13.533127 -3.571809 93.404872 20.021535 -7.060623 6.063286 5.627968 -6.646860 -3.202612 4.321954 -4.389083 -21.554957 18.622487 -3.061028 -65.067251 -2.948949 19.690677 -12.324772 1.240519 5.912082 -0.174758 1.702502 -1.075564 -10.341250 7.059645 -13.725728 -2.932435 2.917785 2.331097 -4.778594 0.218066 6.116284 0.417760 -0.211503 0.250733 -8.507684 3.809843 7.490014 23.426772 16.137271 5.813137 -0.118719 -2.277072 -9.441721 -0.868013 -0.086126 -0.454755
13.277669 89.424079 -17.683764 59.759985 -12.138385 0.442359 -1.593945 6.646719 0.313350 -0.691508 2.911994 0.269422 -0.691508 2.911994 0.269422 -0.519804 2.183695 0.205320 -0.095536 21.084679 -0.055862 -0.157062 2.971339 -0.073475 10.201570 13.760433 -3.390190 93.363573 20.048943 -7.209253 5.968342 5.432176 -6.707941 -3.216353 4.254827 -4.557510 -21.529893 18.795825 -2.871265 -64.324566 -1.901372 19.491461 -12.777904 -0.092201 6.167638 -0.218541 1.607399 -1.122433 -10.273612 6.920542 -13.666770 -2.911775 2.914969 2.318256 -4.825553 0.200465 6.120698 0.396240 -0.176406 0.241049 -8.403271 3.705142 7.526197 23.454338 16.061903 5.831794 -0.226803 -2.318972 -9.468875 -0.806459 -0.047896 -0.412302
13.273947 89.419181 -17.701036 59.718270 -12.003233 0.461006 -1.481949 6.517614 0.207837 -0.635273 2.863811 0.231089 -0.635273 2.863811 0.231089 -0.477439 2.147622 0.176260 -0.096770 21.136974 0.042255 -0.187894 3.068592 0.104866 10.002467 13.847190 -3.171149 93.335014 20.561455 -7.070162 5.908113 4.651213 -7.052146 -3.215588 4.174060 -4.726710 -21.507500 18.839854 -2.560120 -63.508976 -0.661676 19.298442 -13.209022 -1.053653 6.186097 -0.245574 1.511349 -1.191375 -10.133073 6.798518 -13.613851 -3.076706 2.913032 2.268917 -4.789451 0.181378 6.113388 0.427083 -0.132449 0.250409 -8.442816 3.621408 7.482814 23.544783 15.951956 5.838967 -0.176128 -2.302371 -9.430088 -0.859492 -0.020039 -0.422200
13.271636 89.419353 -17.722611 59.708169 -11.883592 0.486488 -1.392580 6.456079 0.106488 -0.584487 2.838069 0.193531 -0.584487 2.838069 0.193531 -0.439175 2.128369 0.147835 -0.108362 21.160244 0.143268 -0.238296 3.112098 0.291464 9.793716 13.786729 -2.979298 93.240246 21.562940 -6.674225 5.933915 3.359038 -7.664585 -3.221820 4.130630 -4.799733 -21.427692 18.829160 -2.189958 -62.812706 0.588373 19.139525 -13.506522 -1.754759 6.169934 -0.217643 1.376014 -1.266023 -10.159652 6.675474 -13.622563 -3.146311 2.884962 2.271502 -4.762499 0.186386 6.076633 0.460116 -0.101382 0.263770 -8.664654 3.547106 7.411780 23.751768 15.877353 5.846003 -0.094941 -2.272398 -9.384607 -0.922484 -0.017180 -0.438085
13.275200 89.421735 -17.741925 59.684983 -11.707006 0.509981 -1.315039 6.437996 0.036966 -0.543907 2.809167 0.165731 -0.543907 2.809167 0.165731 -0.408611 2.106730 0.126775 -0.121390 21.158710 0.222275 -0.284934 3.109599 0.438599 9.618853 13.604931 -2.851117 93.122764 22.703957 -6.087004 5.995186 2.086846 -8.410462 -3.216024 4.037846 -4.734395 -21.290243 18.840781 -1.856818 -62.301121 1.550532 19.029769 -13.711781 -2.260124 6.265088 -0.148876 1.299477 -1.393078 -10.162687 6.482292 -13.608157 -3.138372 2.888276 2.253812 -4.781372 0.182759 6.060342 0.488876 -0.086889 0.275423 -8.923335 3.395858 7.382808 23.918016 15.890570 5.811012 0.067251 -2.247576 -9.334014 -0.996550 -0.050899 -0.459490
13.256539 89.421663 -17.763460 59.679840 -11.383009 0.529400 -1.238025 6.346069 -0.024870 -0.498530 2.760465 0.143100 -0.498530 2.760465 0.143100 -0.374472 2.070234 0.109557 -0.144496 21.157752 0.303866 -0.350607 3.108347 0.593353 9.401856 13.472869 -2.744881 92.919897 23.856869 -5.591569 6.118679 0.972031 -9.082213 -3.219648 3.965425 -4.640744 -21.254292 18.957829 -1.613061 -61.900944 2.131429 18.997300 -13.829848 -2.477982 6.325189 -0.061124 1.235627 -1.482681 -10.121384 6.097654 -13.534096 -3.195346 2.990392 2.197053 -4.778767 0.124294 6.056818 0.515729 -0.062606 0.286220 -9.257844 3.052909 7.384165 24.222893 15.971813 5.814595 0.156958 -2.247702 -9.283085 -1.072670 -0.082972 -0.484876
13.209954 89.426847 -17.785287 59.639301 -11.012985 0.558424 -1.106699 6.291049 -0.075638 -0.453184 2.711455 0.129894 -0.453184 2.711455 0.129894 -0.340401 2.033496 0.099415 -0.174752 21.127399 0.384240 -0.429088 3.052691 0.748138 9.190274 13.306356 -2.678545 92.645306 24.939439 -5.197385 6.231816 0.130246 -9.592936 -3.220636 3.895788 -4.601993 -21.284382 19.065097 -1.452055 -61.552756 2.230501 19.055256 -13.945698 -2.188356 6.254413 0.020644 1.173003 -1.584523 -10.135950 5.581603 -13.436600 -3.391669 3.179984 2.108842 -4.565485 0.071335 6.019532 0.587407 -0.062807 0.318584 -9.682874 2.590694 7.389821 24.651938 16.180326 5.858901 0.362548 -2.218584 -9.181920 -1.267186 -0.170914 -0.567732
13.127307 89.433125 -17.840525 59.521236 -10.474358 0.601159 -0.900184 6.257627 -0.117358 -0.413871 2.636111 0.127608 -0.413871 2.636111 0.127608 -0.310899 1.976998 0.097475 -0.200244 21.057052 0.455411 -0.496621 2.922797 0.885135 8.933774 13.139367 -2.696535 92.434167 25.741952 -4.953012 6.276197 -0.282694 -9.934629 -3.203536 3.809688 -4.591931 -21.379852 18.974942 -1.373277 -61.217394 2.283057 19.098256 -13.937922 -1.644073 6.135424 0.092195 1.141626 -1.795235 -9.965573 4.777867 -13.349223 -3.917221 3.587838 2.122091 -4.156924 -0.028903 5.864038 0.715623 -0.082163 0.390888 -10.149354 1.879602 7.412457 25.168718 16.518499 5.922637 0.716426 -2.200911 -8.999419 -1.579428 -0.273494 -0.706247
13.037745 89.441432 -17.921993 59.069564 -9.785273 0.903528 -0.406856 6.309849 -0.364782 -0.370633 2.535092 0.129783 -0.370633 2.535092 0.129783 -0.278468 1.901242 0.098860 -0.222549 20.924847 0.516733 -0.556171 2.678023 1.003869 8.711513 12.898533 -2.736575 92.213106 26.336531 -4.789835 6.309499 -0.478402 -10.202279 -3.198772 3.697881 -4.601124 -21.409301 18.669062 -1.254102 -61.086167 2.297265 19.033939 -13.762564 -0.891728 6.134049 0.154851 1.056575 -2.051419 -9.710340 3.667851 -13.509118 -4.289881 4.055088 1.985439 -3.104018 -0.142272 6.091105 0.323421 -0.116920 0.252865 -10.405911 0.890935 7.281662 25.900756 17.051683 6.048479 1.051750 -2.060508 -8.768226 -1.972225 -0.585734 -0.879724
12.937899 89.435895 -17.957523 58.709117 -8.832702 0.963840 -0.031174 6.387779 -0.343723 -0.350639 2.378181 0.142290 -0.350639 2.378181 0.142290 -0.263496 1.783555 0.108068 -0.226066 20.731502 0.528895 -0.567845 2.319116 1.028365 8.673463 12.679441 -2.856875 91.893671 26.721005 -4.790547 6.374142 -0.598662 -10.390340 -3.248734 3.514054 -4.677027 -21.327362 18.273909 -1.201949 -61.127787 2.265116 18.958094 -13.492123 -0.356183 6.326454 0.258105 0.890872 -2.257996 -9.843769 2.164862 -13.275583 -3.916303 4.731166 1.842147 -2.820537 -0.395789 5.964326 0.358494 -0.127368 0.340723 -10.879901 -0.463727 7.559716 27.013478 17.951955 6.231845 1.238039 -2.117649 -8.546917 -2.372453 -0.877294 -1.058662
